<svg xmlns="http://www.w3.org/2000/svg" x="0px" y="0px"
width="50" height="50"
viewBox="0 0 172 172"
style=" fill:#000000;"><g fill="none" fill-rule="nonzero" stroke="none" stroke-width="1" stroke-linecap="butt" stroke-linejoin="miter" stroke-miterlimit="10" stroke-dasharray="" stroke-dashoffset="0" font-family="none" font-weight="none" font-size="none" text-anchor="none" style="mix-blend-mode: normal"><path d="M0,172v-172h172v172z" fill="none"></path><g fill="#ffffff"><path d="M114.9175,0c-1.89469,0.17469 -3.29219,1.86781 -3.1175,3.7625c0.17469,1.89469 1.86781,3.29219 3.7625,3.1175h44.6125l-71.81,71.9175c-1.02125,0.83313 -1.49156,2.16344 -1.19594,3.45344c0.29562,1.27656 1.30344,2.28438 2.58,2.58c1.29,0.29563 2.62031,-0.17469 3.45344,-1.19594l71.9175,-71.81v44.6125c-0.01344,1.23625 0.63156,2.39188 1.70656,3.02344c1.075,0.61813 2.39187,0.61813 3.46687,0c1.075,-0.63156 1.72,-1.78719 1.70656,-3.02344v-56.4375h-56.4375c-0.1075,0 -0.215,0 -0.3225,0c-0.1075,0 -0.215,0 -0.3225,0zM6.88,34.4c-1.80062,0 -3.64156,0.63156 -4.945,1.935c-1.30344,1.30344 -1.935,3.14438 -1.935,4.945v123.84c0,1.80063 0.63156,3.64156 1.935,4.945c1.30344,1.30344 3.14438,1.935 4.945,1.935h123.84c1.80063,0 3.64156,-0.63156 4.945,-1.935c1.30344,-1.30344 1.935,-3.14437 1.935,-4.945v-103.2c0.01344,-1.23625 -0.63156,-2.39187 -1.70656,-3.02344c-1.075,-0.61813 -2.39187,-0.61813 -3.46687,0c-1.075,0.63156 -1.72,1.78719 -1.70656,3.02344v103.2h-123.84v-123.84h103.2c1.23625,0.01344 2.39188,-0.63156 3.02344,-1.70656c0.61813,-1.075 0.61813,-2.39187 0,-3.46687c-0.63156,-1.075 -1.78719,-1.72 -3.02344,-1.70656z"></path></g></g></svg>